HIERARCHY
ROOT pelvis
{
	OFFSET 0.003123 -0.351407 0.012037
	CHANNELS 6 Xposition Yposition Zposition Zrotation Yrotation Xrotation 
	JOINT left_hip
	{
		OFFSET 0.058189 -0.092763 -0.026001
		CHANNELS 3 Zrotation Yrotation Xrotation
		JOINT left_knee
		{
			OFFSET 0.054695 -0.378753 -0.009396
			CHANNELS 3 Zrotation Yrotation Xrotation
			JOINT left_ankle
			{
				OFFSET -0.043453 -0.403059 -0.031876
				CHANNELS 3 Zrotation Yrotation Xrotation
				JOINT left_foot
				{
					OFFSET 0.047257 -0.057997 0.118216
					CHANNELS 3 Zrotation Yrotation Xrotation
					End Site
					{
						OFFSET 0.000000 0.000000 0.000000
					}
				}
			}
		}
	}
	JOINT right_hip
	{
		OFFSET -0.063267 -0.103908 -0.021250
		CHANNELS 3 Zrotation Yrotation Xrotation
		JOINT right_knee
		{
			OFFSET -0.044210 -0.362380 -0.016824
			CHANNELS 3 Zrotation Yrotation Xrotation
			JOINT right_ankle
			{
				OFFSET 0.015417 -0.410728 -0.020192
				CHANNELS 3 Zrotation Yrotation Xrotation
				JOINT right_foot
				{
					OFFSET -0.038812 -0.058328 0.119049
					CHANNELS 3 Zrotation Yrotation Xrotation
					End Site
					{
						OFFSET 0.000000 0.000000 0.000000
					}
				}
			}
		}
	}
	JOINT spine_1
	{
		OFFSET -0.002763 0.109891 -0.027618
		CHANNELS 3 Zrotation Yrotation Xrotation
		JOINT spine_2
		{
			OFFSET 0.009448 0.131853 -0.005940
			CHANNELS 3 Zrotation Yrotation Xrotation
			JOINT spine_3
			{
				OFFSET -0.011330 0.052235 0.028447
				CHANNELS 3 Zrotation Yrotation Xrotation
				JOINT neck
				{
					OFFSET -0.012164 0.165167 -0.031615
					CHANNELS 3 Zrotation Yrotation Xrotation
					JOINT head
					{
						OFFSET 0.024783 0.160452 0.020737
						CHANNELS 3 Zrotation Yrotation Xrotation
						End Site
						{
							OFFSET 0.000000 0.000000 0.000000
						}
					}
				}
				JOINT left_collar
				{
					OFFSET 0.046364 0.084944 -0.007220
					CHANNELS 3 Zrotation Yrotation Xrotation
					JOINT left_shoulder
					{
						OFFSET 0.119239 0.057728 -0.015461
						CHANNELS 3 Zrotation Yrotation Xrotation
						JOINT left_elbow
						{
							OFFSET 0.254123 -0.072151 -0.042459
							CHANNELS 3 Zrotation Yrotation Xrotation
							JOINT left_wrist
							{
								OFFSET 0.251987 0.023221 -0.002472
								CHANNELS 3 Zrotation Yrotation Xrotation
								JOINT left_index_1
								{
									OFFSET 0.101902 -0.008688 0.019351
									CHANNELS 3 Zrotation Yrotation Xrotation
									JOINT left_index_2
									{
										OFFSET 0.030149 -0.011154 0.001151
										CHANNELS 3 Zrotation Yrotation Xrotation
										JOINT left_index_3
										{
											OFFSET 0.006504 -0.021577 -0.002433
											CHANNELS 3 Zrotation Yrotation Xrotation
											End Site
											{
												OFFSET 0.000000 0.000000 0.000000
											}
										}
									}
								}
								JOINT left_middle_1
								{
									OFFSET 0.109398 -0.006328 -0.003981
									CHANNELS 3 Zrotation Yrotation Xrotation
									JOINT left_middle_2
									{
										OFFSET 0.026472 -0.015218 -0.004641
										CHANNELS 3 Zrotation Yrotation Xrotation
										JOINT left_middle_3
										{
											OFFSET 0.005022 -0.023347 -0.001911
											CHANNELS 3 Zrotation Yrotation Xrotation
											End Site
											{
												OFFSET 0.000000 0.000000 0.000000
											}
										}
									}
								}
								JOINT left_pinky_1
								{
									OFFSET 0.084047 -0.014539 -0.043750
									CHANNELS 3 Zrotation Yrotation Xrotation
									JOINT left_pinky_2
									{
										OFFSET 0.012124 -0.014448 -0.005375
										CHANNELS 3 Zrotation Yrotation Xrotation
										JOINT left_pinky_3
										{
											OFFSET 0.003798 -0.018853 0.000167
											CHANNELS 3 Zrotation Yrotation Xrotation
											End Site
											{
												OFFSET 0.000000 0.000000 0.000000
											}
										}
									}
								}
								JOINT left_ring_1
								{
									OFFSET 0.097444 -0.009268 -0.027345
									CHANNELS 3 Zrotation Yrotation Xrotation
									JOINT left_ring_2
									{
										OFFSET 0.023561 -0.016057 -0.001895
										CHANNELS 3 Zrotation Yrotation Xrotation
										JOINT left_ring_3
										{
											OFFSET 0.004257 -0.023548 0.000814
											CHANNELS 3 Zrotation Yrotation Xrotation
											End Site
											{
												OFFSET 0.000000 0.000000 0.000000
											}
										}
									}
								}
								JOINT left_thumb_1
								{
									OFFSET 0.040636 -0.017977 0.025611
									CHANNELS 3 Zrotation Yrotation Xrotation
									JOINT left_thumb_2
									{
										OFFSET 0.021637 -0.017639 0.011623
										CHANNELS 3 Zrotation Yrotation Xrotation
										JOINT left_thumb_3
										{
											OFFSET 0.024002 -0.008356 0.006548
											CHANNELS 3 Zrotation Yrotation Xrotation
											End Site
											{
												OFFSET 0.000000 0.000000 0.000000
											}
										}
									}
								}
							}
						}
					}
				}
				JOINT right_collar
				{
					OFFSET -0.047695 0.084339 -0.013400
					CHANNELS 3 Zrotation Yrotation Xrotation
					JOINT right_shoulder
					{
						OFFSET -0.102578 0.053524 -0.012669
						CHANNELS 3 Zrotation Yrotation Xrotation
						JOINT right_elbow
						{
							OFFSET -0.271150 -0.036492 -0.026467
							CHANNELS 3 Zrotation Yrotation Xrotation
							JOINT right_wrist
							{
								OFFSET -0.249267 -0.004533 -0.015325
								CHANNELS 3 Zrotation Yrotation Xrotation
								JOINT right_index_1
								{
									OFFSET -0.099881 -0.011783 0.019600
									CHANNELS 3 Zrotation Yrotation Xrotation
									JOINT right_index_2
									{
										OFFSET -0.030148 -0.011154 0.001151
										CHANNELS 3 Zrotation Yrotation Xrotation
										JOINT right_index_3
										{
											OFFSET -0.006505 -0.021577 -0.002432
											CHANNELS 3 Zrotation Yrotation Xrotation
											End Site
											{
												OFFSET 0.000000 0.000000 0.000000
											}
										}
									}
								}
								JOINT right_middle_1
								{
									OFFSET -0.107376 -0.009422 -0.003734
									CHANNELS 3 Zrotation Yrotation Xrotation
									JOINT right_middle_2
									{
										OFFSET -0.026472 -0.015218 -0.004641
										CHANNELS 3 Zrotation Yrotation Xrotation
										JOINT right_middle_3
										{
											OFFSET -0.005022 -0.023347 -0.001911
											CHANNELS 3 Zrotation Yrotation Xrotation
											End Site
											{
												OFFSET 0.000000 0.000000 0.000000
											}
										}
									}
								}
								JOINT right_pinky_1
								{
									OFFSET -0.082027 -0.017634 -0.043503
									CHANNELS 3 Zrotation Yrotation Xrotation
									JOINT right_pinky_2
									{
										OFFSET -0.012123 -0.014448 -0.005374
										CHANNELS 3 Zrotation Yrotation Xrotation
										JOINT right_pinky_3
										{
											OFFSET -0.003798 -0.018852 0.000167
											CHANNELS 3 Zrotation Yrotation Xrotation
											End Site
											{
												OFFSET 0.000000 0.000000 0.000000
											}
										}
									}
								}
								JOINT right_ring_1
								{
									OFFSET -0.095423 -0.012362 -0.027099
									CHANNELS 3 Zrotation Yrotation Xrotation
									JOINT right_ring_2
									{
										OFFSET -0.023561 -0.016057 -0.001895
										CHANNELS 3 Zrotation Yrotation Xrotation
										JOINT right_ring_3
										{
											OFFSET -0.004257 -0.023548 0.000816
											CHANNELS 3 Zrotation Yrotation Xrotation
											End Site
											{
												OFFSET 0.000000 0.000000 0.000000
											}
										}
									}
								}
								JOINT right_thumb_1
								{
									OFFSET -0.038613 -0.021074 0.025861
									CHANNELS 3 Zrotation Yrotation Xrotation
									JOINT right_thumb_2
									{
										OFFSET -0.021636 -0.017639 0.011623
										CHANNELS 3 Zrotation Yrotation Xrotation
										JOINT right_thumb_3
										{
											OFFSET -0.024004 -0.008353 0.006547
											CHANNELS 3 Zrotation Yrotation Xrotation
											End Site
											{
												OFFSET 0.000000 0.000000 0.000000
											}
										}
									}
								}
							}
						}
					}
				}
			}
		}
	}
}
MOTION
Frames: 5
Frame Time: 0.050000
-0.017640 0.933204 -0.272629 0.892687 -17.693845 -20.552865 1.110868 0.245131 1.259443 -1.010689 -1.055967 19.550261 3.198039 11.796043 13.306854 0.000000 0.000000 0.000000 -0.661278 -1.138619 17.304655 -0.734484 0.703466 11.897757 -5.992779 17.774823 -25.920492 0.000000 0.000000 0.000000 -3.437161 -0.903282 11.204977 -8.282067 1.768691 -7.217218 11.149200 -1.935418 22.663526 -0.790408 -0.571075 5.726758 0.000000 0.000000 0.000000 -5.852443 -0.466199 0.423906 -41.186157 -16.180413 -4.905796 160.973138 -63.077033 -127.432556 9.339629 -9.189783 -23.365887 -14.163884 -5.577610 0.265092 -47.343779 -0.964744 -3.255033 0.000000 0.000000 0.000000 -30.138655 -14.981829 -6.100579 -38.984112 -3.916686 -7.332603 0.000000 0.000000 0.000000 -5.539103 -27.318655 -35.917448 -21.456003 1.662163 2.377567 0.000000 0.000000 0.000000 -28.628381 -22.963251 -8.207829 -26.704704 -12.087400 -18.174143 0.000000 0.000000 0.000000 22.037383 19.640773 4.687276 -21.572389 -10.667040 2.836168 0.000000 0.000000 0.000000 -0.590060 -0.993500 -0.354663 45.516122 16.948216 -3.646091 -167.348257 60.567806 -166.069990 2.172093 9.975171 -13.235774 19.361873 5.700068 0.462201 42.063527 5.280071 -10.780436 0.000000 0.000000 0.000000 27.950597 17.120924 -7.945686 37.949783 11.306361 -20.360533 0.000000 0.000000 0.000000 -9.776780 24.836212 -37.779168 28.880926 8.909718 -15.584739 0.000000 0.000000 0.000000 21.497411 26.174072 -12.422947 27.685850 14.926912 -24.015187 0.000000 0.000000 0.000000 -15.445878 -19.506623 8.966058 17.470804 13.762343 0.976219 0.000000 0.000000 0.000000 
-0.022116 0.934977 -0.277908 1.105560 -17.830504 -20.632455 0.301187 0.243642 1.446577 -0.983562 -1.056819 19.755954 5.443398 14.777147 11.556215 0.000000 0.000000 0.000000 -0.415218 -1.195807 17.869856 -0.907862 0.610403 10.446624 -5.463902 18.058025 -25.005639 0.000000 0.000000 0.000000 -4.289380 -0.869689 10.930705 -8.008397 1.206665 -8.437677 10.710406 -1.586370 26.189381 0.900389 -0.685700 3.037689 0.000000 0.000000 0.000000 -4.404388 2.065710 -1.031858 -41.523311 -15.269050 -5.014305 162.385950 -63.201083 -129.434901 10.201360 -9.048562 -24.533934 -11.995637 -6.424214 -0.095051 -32.839338 -3.814447 -8.038432 0.000000 0.000000 0.000000 -23.352799 -15.297634 -6.574261 -31.476334 -8.007933 -15.365450 0.000000 0.000000 0.000000 -2.161441 -23.229598 -31.409525 -16.793310 -3.409533 -7.303382 0.000000 0.000000 0.000000 -25.967400 -22.974975 -8.600115 -17.022017 -10.778277 -21.265180 0.000000 0.000000 0.000000 21.945454 18.003555 3.077484 -21.076737 -10.306552 3.006374 0.000000 0.000000 0.000000 -0.590644 -2.130593 -0.943911 46.006993 17.829574 -3.613064 -164.494916 60.320177 -160.212277 2.303434 8.660576 -15.267140 17.999014 6.208976 0.317455 43.728525 3.532890 -7.252717 0.000000 0.000000 0.000000 27.245874 15.616613 -7.376328 40.995453 13.173838 -21.560099 0.000000 0.000000 0.000000 -7.384224 21.993558 -32.867251 31.937412 10.637828 -17.078947 0.000000 0.000000 0.000000 22.857788 23.080943 -10.506838 30.155180 16.069723 -23.675623 0.000000 0.000000 0.000000 -14.395153 -18.933519 8.127638 16.112633 11.588661 0.750152 0.000000 0.000000 0.000000 
-0.025178 0.935944 -0.280548 1.446380 -18.255430 -21.661147 0.174949 0.323079 1.980408 -0.899039 -1.090417 21.223352 5.058764 13.920613 10.668800 0.000000 0.000000 0.000000 -0.527028 -1.152170 18.595639 -0.978741 0.638390 10.700084 -5.386275 18.479771 -24.965307 0.000000 0.000000 0.000000 -5.336521 -0.845012 13.039077 -7.329643 0.126424 -10.731092 11.388480 0.297823 26.533048 0.033800 -0.520065 3.336682 0.000000 0.000000 0.000000 -3.469513 1.685280 -0.894010 -42.547460 -13.876375 -5.209010 161.701333 -62.947018 -128.603478 9.170647 -7.443835 -23.658502 -10.707890 -3.499039 0.101045 -39.993093 -2.272747 -4.512910 0.000000 0.000000 0.000000 -23.562181 -15.037596 -6.636298 -37.582992 -4.829829 -8.129224 0.000000 0.000000 0.000000 -2.609371 -24.286263 -32.843429 -20.547716 0.282651 0.240594 0.000000 0.000000 0.000000 -26.003950 -22.211042 -8.449962 -22.865861 -10.854763 -17.780519 0.000000 0.000000 0.000000 22.684318 20.945079 6.524388 -20.160519 -14.369997 1.985966 0.000000 0.000000 0.000000 -0.605303 -1.039168 -0.377099 44.930282 15.640670 -3.890075 -162.051231 59.881415 -155.417087 0.928952 8.255592 -16.458136 12.018938 6.639197 -0.522690 36.094541 7.125250 -12.864931 0.000000 0.000000 0.000000 21.013715 17.023098 -8.146093 38.949340 16.232823 -26.707500 0.000000 0.000000 0.000000 -9.792976 25.850371 -39.764648 30.013609 11.946081 -20.213601 0.000000 0.000000 0.000000 17.239552 24.842057 -12.676281 31.518797 20.924439 -30.856986 0.000000 0.000000 0.000000 -16.846652 -17.907916 5.974135 16.068887 8.725530 1.562611 0.000000 0.000000 0.000000 
-0.029182 0.934332 -0.283188 0.767040 -18.013348 -20.548837 1.387220 0.258883 1.256945 -1.770434 -0.847375 21.850052 5.222852 13.168609 7.064570 0.000000 0.000000 0.000000 0.428241 -1.343936 17.566448 -0.719200 0.605404 10.666678 -5.448392 18.087137 -24.966903 0.000000 0.000000 0.000000 -5.124339 -0.846820 12.450334 -7.202224 0.980667 -7.962345 11.317737 -1.009762 23.881043 0.745295 -0.506339 2.023478 0.000000 0.000000 0.000000 -2.879263 3.757840 -1.991908 -43.455142 -13.374955 -4.988967 159.543655 -62.803020 -125.402467 9.242263 -8.402443 -25.762475 -12.223508 -4.440452 0.210225 -46.945564 -3.980158 -6.500090 0.000000 0.000000 0.000000 -26.602717 -16.766587 -6.562893 -37.471070 -9.733309 -16.296926 0.000000 0.000000 0.000000 -0.403688 -28.803075 -39.674660 -20.881760 -2.833257 -5.657708 0.000000 0.000000 0.000000 -27.629601 -28.286785 -10.055167 -21.356852 -11.346754 -19.549145 0.000000 0.000000 0.000000 24.348983 20.382717 4.623370 -23.372347 -9.532039 3.979209 0.000000 0.000000 0.000000 -0.296093 -2.047224 -0.964564 44.333744 15.539308 -3.853893 -162.096304 60.480058 -156.542446 0.468455 10.171164 -17.805519 9.582798 7.181487 -0.921116 7.224748 5.210688 -16.192862 0.000000 0.000000 0.000000 14.139473 17.264234 -8.666607 21.355393 9.979581 -22.967233 0.000000 0.000000 0.000000 -13.252464 20.643541 -31.847484 22.685758 10.855372 -21.334324 0.000000 0.000000 0.000000 11.739599 18.983282 -10.830734 21.816572 18.236201 -32.925331 0.000000 0.000000 0.000000 -21.122951 -19.127927 5.837651 21.452146 12.841105 2.964259 0.000000 0.000000 0.000000 
-0.034836 0.934010 -0.283188 0.360239 -17.753718 -19.587510 1.950406 0.292832 1.381841 -2.128615 -0.742840 21.160286 5.785196 13.394400 4.419060 0.000000 0.000000 0.000000 1.509622 -1.544526 16.763005 -1.107641 0.652844 10.672438 -5.567273 17.623101 -25.025058 0.000000 0.000000 0.000000 -4.570887 -0.872580 13.120013 -7.651459 0.388739 -10.470619 11.185244 0.015895 25.063337 0.771157 -0.364953 0.909634 0.000000 0.000000 0.000000 -2.926478 3.082323 -1.646281 -43.276003 -12.069522 -5.318151 155.790713 -62.060529 -119.517830 8.913220 -10.184836 -29.102303 -8.536397 -5.606840 -0.349555 -24.214678 -5.597669 -11.470023 0.000000 0.000000 0.000000 -21.071054 -16.947127 -6.927811 -26.433828 -9.584773 -18.464247 0.000000 0.000000 0.000000 1.206203 -25.878690 -36.129297 -13.482040 -2.208554 -5.032016 0.000000 0.000000 0.000000 -21.214765 -26.231866 -10.896374 -13.184914 -10.159254 -21.036375 0.000000 0.000000 0.000000 23.191299 18.345981 2.425626 -21.705510 -9.292666 3.493425 0.000000 0.000000 0.000000 0.438043 -2.934869 -1.604091 45.960480 13.608964 -4.273633 -161.768778 60.281830 -154.872933 1.121231 10.295148 -16.885056 8.183628 8.100098 -1.360712 2.120883 6.319468 -21.449388 0.000000 0.000000 0.000000 13.208756 18.875677 -9.477423 11.838484 8.082114 -23.594157 0.000000 0.000000 0.000000 -15.396849 21.511866 -33.127765 12.736770 6.521496 -16.161468 0.000000 0.000000 0.000000 11.599455 22.147665 -12.576409 7.282200 8.612055 -24.185316 0.000000 0.000000 0.000000 -22.272682 -17.947330 4.282910 20.426362 12.953585 2.634022 0.000000 0.000000 0.000000 
